<?xml version="1.0" encoding="utf-8"?><svg xmlns="http://www.w3.org/2000/svg"><symbol viewBox="0 0 24 24" id="help"><path d="M12 14C12 12 13.576002 11.6652983 14.1186858 11.1239516 14.663127 10.5808518 15 9.82976635 15 9 15 7.34314575 13.6568542 6 12 6 11.1040834 6 10.2998929 6.39272604 9.75018919 7.01541737 9.49601109 7.30334431 9.29624369 7.64043912 9.16697781 8.01061095"/><line x1="12" y1="17" x2="12" y2="17"/><circle cx="12" cy="12" r="10"/></symbol><symbol viewBox="0 0 24 24" id="people"><path d="M1 18C1 15.75 4 15.75 5.5 14.25 6.25 13.5 4 13.5 4 9.75 4 7.25025 4.99975 6 7 6 9.00025 6 10 7.25025 10 9.75 10 13.5 7.75 13.5 8.5 14.25 10 15.75 13 15.75 13 18M12.7918114 15.7266684C13.2840551 15.548266 13.6874862 15.3832994 14.0021045 15.2317685 14.552776 14.9665463 15.0840574 14.6659426 15.5 14.25 16.25 13.5 14 13.5 14 9.75 14 7.25025 14.99975 6 17 6 19.00025 6 20 7.25025 20 9.75 20 13.5 17.75 13.5 18.5 14.25 20 15.75 23 15.75 23 18"/><path stroke-linecap="round" d="M12,16 C12.3662741,15.8763472 12.6302112,15.7852366 12.7918114,15.7266684"/></symbol><symbol viewBox="0 0 24 24" id="plus"><path d="M20 12L4 12M12 4L12 20"/></symbol></svg>