<?xml version="1.0" encoding="utf-8"?>
<!-- Generator: Adobe Illustrator 23.0.3, SVG Export Plug-In . SVG Version: 6.00 Build 0)  -->
<svg version="1.1" id="Layer_1" xmlns="http://www.w3.org/2000/svg" xmlns:xlink="http://www.w3.org/1999/xlink" x="0px" y="0px"
	 viewBox="0 0 153.6 153.6" style="enable-background:new 0 0 153.6 153.6;" xml:space="preserve">
<style type="text/css">
	.st0{fill:#70D1C0;}
	.st1{fill:#66C4A3;}
	.st2{fill:#4C9AE8;}
	.st3{fill:#57B9E2;}
	.st4{fill:#E43BA0;}
	.st5{fill:#B060FF;}
	.st6{fill:#7B78EB;}
	.st7{fill:#52E3D6;}
	.st8{fill:#3F93E4;}
	.st9{fill:#F19236;}
	.st10{fill:#FF4F4F;}
	.st11{fill:#2CC6E2;}
	.st12{fill:#78D32E;}
	.st13{fill:#E23F40;}
	.st14{fill:#40A4E2;}
	.st15{fill:#37CFA0;}
	.st16{fill:#3EC1CB;}
	.st17{fill:#3FC2CC;}
	.st18{fill:#3FC2CB;}
	.st19{fill:#42C3CC;}
	.st20{fill:#40C2CC;}
	.st21{fill:#49C5CE;}
	.st22{fill:#41C2CC;}
	.st23{fill:#43C3CC;}
	.st24{fill:#42C2CC;}
	.st25{fill:#43C3CD;}
	.st26{fill:#F0F8F8;}
	.st27{fill:#F1F8F8;}
	.st28{fill:#EEF7F7;}
	.st29{fill:#EBF6F7;}
	.st30{fill:#ECF7F7;}
	.st31{fill:#E0F3F4;}
	.st32{fill:#E6F5F5;}
	.st33{fill:#E8F5F6;}
	.st34{fill:#EFF7F7;}
	.st35{fill:#3FC1CB;}
	.st36{fill:#45C4CD;}
	.st37{fill:#46C4CD;}
	.st38{fill:#44C3CD;}
	.st39{fill:#45C3CD;}
	.st40{fill:#143755;}
	.st41{fill:#DDB833;}
	.st42{fill:#E2BB3C;}
	.st43{fill:#67C7A5;}
	.st44{fill:#D573B0;}
	.st45{fill:#EF6067;}
	.st46{fill:#3BCBF2;}
	.st47{fill:#F569B0;}
	.st48{fill:#3BC6E5;}
	.st49{fill:url(#SVGID_1_);}
	.st50{fill:url(#SVGID_2_);}
	.st51{fill:url(#SVGID_3_);}
	.st52{fill:url(#SVGID_4_);}
	.st53{fill:url(#SVGID_5_);}
	.st54{fill:url(#SVGID_6_);}
	.st55{fill:url(#SVGID_7_);}
	.st56{fill:url(#SVGID_8_);}
	.st57{fill:url(#SVGID_9_);}
	.st58{fill:url(#SVGID_10_);}
	.st59{fill:url(#SVGID_11_);}
	.st60{fill:url(#SVGID_12_);}
	.st61{fill:#FFFFFF;}
	.st62{fill:url(#SVGID_13_);}
	.st63{fill:url(#SVGID_14_);}
	.st64{fill:url(#SVGID_15_);}
	.st65{fill:url(#SVGID_16_);}
	.st66{fill:url(#SVGID_17_);}
	.st67{fill:url(#SVGID_18_);}
	.st68{fill:url(#SVGID_19_);}
	.st69{fill:url(#SVGID_20_);}
	.st70{fill:url(#SVGID_21_);}
	.st71{fill:url(#SVGID_22_);}
	.st72{fill:url(#SVGID_23_);}
	.st73{fill:url(#SVGID_24_);}
	.st74{fill:url(#SVGID_25_);}
	.st75{fill:url(#SVGID_26_);}
	.st76{fill:url(#SVGID_27_);}
	.st77{fill:url(#SVGID_28_);}
	.st78{fill:url(#SVGID_29_);}
	.st79{fill:url(#SVGID_30_);}
	.st80{fill:url(#SVGID_31_);}
	.st81{fill:url(#SVGID_32_);}
	.st82{fill:url(#SVGID_33_);}
	.st83{fill:url(#SVGID_34_);}
	.st84{fill:url(#SVGID_35_);}
	.st85{fill:url(#SVGID_36_);}
	.st86{fill:url(#SVGID_37_);}
	.st87{fill:url(#SVGID_38_);}
	.st88{fill:url(#SVGID_39_);}
	.st89{fill:url(#SVGID_40_);}
	.st90{fill:url(#SVGID_41_);}
	.st91{fill:url(#SVGID_42_);}
	.st92{fill:url(#SVGID_43_);}
	.st93{fill:url(#SVGID_44_);}
	.st94{fill:url(#SVGID_45_);}
	.st95{fill:url(#SVGID_46_);}
	.st96{fill:url(#SVGID_47_);}
	.st97{fill:url(#SVGID_48_);}
	.st98{fill:url(#SVGID_49_);}
	.st99{fill:url(#SVGID_50_);}
	.st100{fill:url(#SVGID_51_);}
	.st101{fill:url(#SVGID_52_);}
	.st102{fill:url(#SVGID_53_);}
	.st103{fill:url(#SVGID_54_);}
	.st104{fill:url(#SVGID_55_);}
	.st105{fill:url(#SVGID_56_);}
	.st106{fill:url(#SVGID_57_);}
	.st107{fill:url(#SVGID_58_);}
	.st108{fill:url(#SVGID_59_);}
	.st109{fill:url(#SVGID_60_);}
	.st110{fill:url(#SVGID_61_);}
	.st111{fill:url(#SVGID_62_);}
</style>
<g>
	<g>
		<path d="M78.1,58.6c-3.1-0.1-5,1.7-5.2,4.8c-0.1,3.1,1.6,5,4.7,5.1c3.2,0.2,4.7-1.7,5.3-4.6C82.7,60.8,81.2,58.7,78.1,58.6z"/>
		<path d="M92.3,72.9c-3-0.1-5,1.8-5.1,4.8c-0.1,3.1,1.7,5,4.8,5.1c3.2,0.1,4.7-1.8,5.2-4.7C97,75,95.4,72.9,92.3,72.9z"/>
		<path d="M63.6,72.9c-3,0.1-4.9,2-4.9,5.1c0,3.1,2,4.7,5.1,4.9c3-0.4,4.9-2,4.8-5.1C68.5,74.7,66.6,72.8,63.6,72.9z"/>
		<path d="M78.2,87.1c-3.1-0.2-5,1.7-5.2,4.8c-0.2,3.1,1.6,5,4.7,5.2c3.2,0.2,4.8-1.7,5.3-4.6C82.8,89.3,81.2,87.3,78.2,87.1z"/>
		<path d="M102.2,64.2c-1.5-0.1-2.6,0.8-2.3,2.3c0.4,2.3,2.1,4,4.4,4.4c1.4,0.3,2.2-0.9,2.4-2.9C105.8,66.4,104.8,64.5,102.2,64.2z"
			/>
		<path d="M129.4,90.1c-3.2-3.3-6.4-6.7-9.8-9.7c-2.3-2-2-3.3,0.1-5.2c3.3-3,6.4-6.3,9.5-9.5c5.6-5.7,5.6-12.8,0-18.6
			c-2.3-2.4-5.1-4.5-7-7.2C116,31.4,108,28.9,97.6,29.6c-7,0.5-13.5,0.4-17.8,7.1c-1.3,2-2.6,1.3-4-0.2c-3.3-3.4-6.7-6.8-10.1-10.1
			C60.1,21,53,20.9,47.4,26.3c-7.1,6.9-14.1,13.9-21.1,21.1C21,52.9,21.1,60,26.6,65.6c3.3,3.4,6.6,6.8,10.1,10.1
			c1.8,1.7,1.6,2.7-0.1,4.3c-3.6,3.3-7,6.8-10.4,10.4c-5,5.3-5,12.5,0,17.7c7,7.2,14.1,14.3,21.3,21.4c5.4,5.3,12.5,5.3,18,0
			c3.5-3.4,7-6.8,10.4-10.4c1.5-1.6,2.5-1.7,4-0.1c3.3,3.6,6.9,7,10.4,10.4c2.5,2.5,5.4,3.9,9.1,3.8c3.6,0.2,6.6-1.4,9.2-4
			c6.9-6.9,13.9-13.8,20.7-20.8C134.7,102.9,134.8,95.7,129.4,90.1z M103.8,35.3c-4.1,4.9-4.8,4.9-8.9,0
			C97.9,35.3,100.6,35.3,103.8,35.3z M73.1,114.7c-4.2,4.1-8.3,8.3-12.6,12.3c-1,0.9-2.5,1.3-3.7,1.1c-2.7,0.1-4.5-0.9-6.2-2.6
			c-6.8-6.8-13.7-13.6-20.4-20.5c-3.5-3.6-3.7-7.6-0.3-11.2c3.4-3.7,7.1-7.1,10.6-10.8c1.2-1.3,2.2-1.3,3.5,0
			c9.5,9.6,19.1,19.2,28.7,28.8C73.5,112.7,74.3,113.5,73.1,114.7z M124.6,106c-6.3,6.3-12.6,12.7-19,19c-4.4,4.4-8.2,4.4-12.7-0.1
			c-20.8-20.7-41.5-41.5-62.3-62.3c-4.2-4.2-4.2-8.2-0.1-12.4c6.5-6.6,13-13.1,19.6-19.6c4.4-4.3,8.3-4.4,12.7,0
			c9.5,9.4,19,19,28.5,28.4c0.7,0.7,1.4,1.4,2.1,2.1c1.1,1.1,2.4,1.6,3.7,0.3c1.5-1.4,1-2.8-0.3-4c-4.1-4.2-8.1-8.6-12.5-12.4
			c-3.4-2.9-1.3-4.3,0.6-6.6c2.3-2.7,3.8-2.2,5.8,0.2c1.4,1.7,2.9,3.4,5,4.5c3.8,1.9,6.9,1,11.1-3.2c4.2-4.2,4.2-4.2,8.4,0
			c3.4,3.4,6.7,6.7,10.1,10.1c1.7,1.7,3,3.7,3.1,6.3c-0.1,2.1-0.9,4-2.4,5.6c-3.5,3.5-7,6.9-10.3,10.4c-1.3,1.3-2.2,1.8-3.7,0.2
			c-1.2-1.3-2.8-1.4-4,0.2c-1.1,1.4-0.2,2.6,0.8,3.6c5.3,5.3,10.7,10.6,16,16C129.5,97.4,129.5,101.1,124.6,106z"/>
	</g>
</g>
</svg>
