<?xml version="1.0" encoding="UTF-8" standalone="no"?> <svg xmlns="http://www.w3.org/2000/svg" viewBox="0 0 46.42 39.7"><defs><style>.cls-1{fill:none;stroke:#333;stroke-linecap:round;stroke-linejoin:round;stroke-width:2px;}</style></defs><title>Asset 1</title><g id="Layer_2" data-name="Layer 2"><g id="Layer_2-2" data-name="Layer 2"><rect class="cls-1" x="1" y="18.03" width="44.42" height="10.27"/><rect class="cls-1" x="1" y="28.3" width="44.42" height="10.4"/><line class="cls-1" x1="1.42" y1="23.07" x2="4.42" y2="23.07"/><line class="cls-1" x1="1.42" y1="33.07" x2="4.42" y2="33.07"/><line class="cls-1" x1="45.42" y1="23.07" x2="42.42" y2="23.07"/><line class="cls-1" x1="45.42" y1="33.07" x2="42.42" y2="33.07"/><path class="cls-1" d="M6.1,14.45C5.74,8.49,7,1.55,9.89,1S16.29,6.37,18,12.08"/><path class="cls-1" d="M4,18c-.18-1.14-.32-2.38-.42-3.75,0,0,4.88.08,7.55,3.64"/><path class="cls-1" d="M11.12,17.93s4.45-4.87,8.53-6.82a30.7,30.7,0,0,1,1.47,5.72"/><path class="cls-1" d="M40.07,18a10.74,10.74,0,0,0,1.36-1.32c3.75-4.35-.16-6.91-.16-6.91s-2.56-3.91-6.92-.16c-1.94,1.66-4,5.09-5.67,8.38"/><line class="cls-1" x1="32.31" y1="13.15" x2="33.72" y2="14.56"/><path class="cls-1" d="M44.94,10l-2.78-.13a.83.83,0,0,1-.78-.93l.47-3.86"/><path class="cls-1" d="M35.94,8.55a4.82,4.82,0,0,0-4-2.2,4.88,4.88,0,0,0-1.27.19,1.37,1.37,0,0,0,0-.19,4.81,4.81,0,1,0-9.61,0c0,.06,0,.12,0,.19a4.67,4.67,0,0,0-4.41,1"/><line class="cls-1" x1="25.42" y1="18.07" x2="25.42" y2="10.07"/><polyline class="cls-1" points="22.09 12.07 25.42 15.07 28.78 12.07"/></g></g></svg>