<?xml version="1.0" encoding="utf-8"?>
<!-- Generator: Adobe Illustrator 23.0.3, SVG Export Plug-In . SVG Version: 6.00 Build 0)  -->
<svg version="1.1" id="Icons" xmlns="http://www.w3.org/2000/svg" xmlns:xlink="http://www.w3.org/1999/xlink" x="0px" y="0px"
	 viewBox="0 0 32 32" style="enable-background:new 0 0 32 32;" xml:space="preserve">
<style type="text/css">
	.st0{fill:none;stroke:#000000;stroke-width:2;stroke-linecap:round;stroke-linejoin:round;stroke-miterlimit:10;}
</style>
<ellipse class="st0" cx="11" cy="8" rx="8" ry="4"/>
<path class="st0" d="M3,8v16c0,2.2,3.6,4,8,4s8-1.8,8-4V8"/>
<line class="st0" x1="10" y1="8" x2="12" y2="8"/>
<polyline class="st0" points="11,4 29,4 27,6 29,8 27,10 29,12 27,14 29,16 27,18 29,20 27,22 29,24 19,24 "/>
<line class="st0" x1="7" y1="14" x2="7" y2="12"/>
<line class="st0" x1="7" y1="20" x2="7" y2="18"/>
<line class="st0" x1="7" y1="26" x2="7" y2="24"/>
</svg>
