<?xml version="1.0" encoding="iso-8859-1"?>
<!-- Generator: Adobe Illustrator 19.0.0, SVG Export Plug-In . SVG Version: 6.00 Build 0)  -->
<svg version="1.1" id="Capa_1" xmlns="http://www.w3.org/2000/svg" xmlns:xlink="http://www.w3.org/1999/xlink" x="0px" y="0px"
	 viewBox="0 0 512 512" style="enable-background:new 0 0 512 512;" xml:space="preserve">
<path style="fill:#159f06;" d="M432,109.864c-18.133,5.333-29.867,21.333-30.933,39.467c-10.667-13.867-29.867-21.333-48-16
	c-23.467,7.467-36.267,32-29.867,55.467C333.867,222.93,432,253.864,432,253.864s65.067-80,54.4-114.133
	C478.933,116.264,454.4,103.464,432,109.864z"/>
<path style="fill:#159f06;" d="M146.133,132.264C128,137.597,116.267,153.597,115.2,171.73c-10.667-13.867-29.867-21.333-48-16
	c-23.467,7.467-36.267,32-29.867,55.467c10.667,34.133,108.8,65.067,108.8,65.067s65.067-80,54.4-114.133
	C194.133,138.664,169.6,124.797,146.133,132.264z"/>
<path style="fill:#F05540;" d="M264.533,2.13C246.4,7.464,234.667,23.464,233.6,41.597c-10.667-13.867-29.867-21.333-48-16
	c-23.467,7.467-36.267,32-29.867,55.467c10.667,34.133,108.8,65.067,108.8,65.067S329.6,65.064,320,30.93
	C312.533,7.464,288-5.336,264.533,2.13z"/>
<path style="fill:#f82f36;" d="M89.6,69.33c-13.867,13.867-13.867,36.267,0,50.133L225.067,254.93
	c13.867,13.867,36.267,13.867,50.133,0c13.867-13.867,13.867-36.267,0-50.133L139.733,69.33
	C125.867,55.464,103.467,55.464,89.6,69.33z"/>
<path style="fill:#66C6B9;" d="M32,262.397L69.333,485.33c3.2,14.933,16,26.667,32,26.667h310.4c16,0,28.8-11.733,32-26.667
	L480,262.397H32z"/>
<polygon style="fill:#f82f36;" points="475.733,286.93 480,262.397 32,262.397 36.267,286.93 "/>
<path style="fill:#F3F3F3;" d="M480,266.664H32c-18.133,0-32-13.867-32-32s13.867-32,32-32h448c18.133,0,32,13.867,32,32
	S498.133,266.664,480,266.664z"/>
<g>
	<path style="fill:#4ABAA5;" d="M256,327.464c-13.867,0-25.6,11.733-25.6,25.6v92.8c0,13.867,11.733,25.6,25.6,25.6
		c13.867,0,25.6-11.733,25.6-25.6v-92.8C281.6,339.197,269.867,327.464,256,327.464z"/>
	<path style="fill:#4ABAA5;" d="M386.133,330.664c-13.867-4.267-28.8,3.2-33.067,17.067l-27.733,88.533
		c-4.267,13.867,3.2,28.8,17.067,33.067s28.8-3.2,33.067-17.067L403.2,363.73C407.467,348.797,400,334.93,386.133,330.664z"/>
	<path style="fill:#4ABAA5;" d="M158.933,347.73c-4.267-13.867-19.2-21.333-33.067-17.067s-21.333,19.2-17.067,33.067l27.733,88.533
		c4.267,13.867,19.2,21.333,33.067,17.067c13.867-4.267,21.333-19.2,17.067-33.067L158.933,347.73z"/>
</g>
<circle style="fill:#f82f36;" cx="256" cy="234.664" r="20.267"/>
<path style="fill:#f82f36;" d="M364.8,46.93c-21.333-2.133-41.6,10.667-49.067,28.8c-5.333-20.267-22.4-35.2-44.8-36.267
	c-27.733-2.133-52.267,18.133-54.4,45.867c-3.2,40.533,88.533,115.2,88.533,115.2s102.4-57.6,105.6-98.133
	C413.867,73.597,392.533,49.064,364.8,46.93z"/>
<g>
</g>
<g>
</g>
<g>
</g>
<g>
</g>
<g>
</g>
<g>
</g>
<g>
</g>
<g>
</g>
<g>
</g>
<g>
</g>
<g>
</g>
<g>
</g>
<g>
</g>
<g>
</g>
<g>
</g>
</svg>
