<?xml version="1.0" encoding="iso-8859-1"?>
<!-- Generator: Adobe Illustrator 21.0.0, SVG Export Plug-In . SVG Version: 6.00 Build 0)  -->
<svg version="1.1" id="Layer_1" xmlns="http://www.w3.org/2000/svg" xmlns:xlink="http://www.w3.org/1999/xlink" x="0px" y="0px"
	 viewBox="0 0 100.353 100.353" style="enable-background:new 0 0 100.353 100.353;" xml:space="preserve">
<g>
	<path style="fill:#231F20;" d="M35.899,24.665h51.957c0.829,0,1.5-0.672,1.5-1.5c0-0.829-0.671-1.5-1.5-1.5H35.899
		c-0.829,0-1.5,0.671-1.5,1.5C34.399,23.993,35.071,24.665,35.899,24.665z"/>
	<path style="fill:#231F20;" d="M87.856,48.788H35.899c-0.829,0-1.5,0.672-1.5,1.5c0,0.829,0.671,1.5,1.5,1.5h51.957
		c0.829,0,1.5-0.671,1.5-1.5C89.356,49.46,88.684,48.788,87.856,48.788z"/>
	<path style="fill:#231F20;" d="M87.856,75.333H35.899c-0.829,0-1.5,0.672-1.5,1.5c0,0.829,0.671,1.5,1.5,1.5h51.957
		c0.829,0,1.5-0.671,1.5-1.5C89.356,76.005,88.684,75.333,87.856,75.333z"/>
	<path style="fill:#231F20;" d="M18.022,15.789c-4.068,0-7.377,3.308-7.377,7.374c0,4.069,3.31,7.379,7.377,7.379
		s7.377-3.311,7.377-7.379C25.4,19.097,22.09,15.789,18.022,15.789z M18.022,27.542c-2.414,0-4.377-1.965-4.377-4.379
		c0-2.412,1.964-4.374,4.377-4.374s4.377,1.962,4.377,4.374C22.4,25.577,20.436,27.542,18.022,27.542z"/>
	<path style="fill:#231F20;" d="M18.022,42.91c-4.068,0-7.377,3.309-7.377,7.376c0,4.069,3.31,7.379,7.377,7.379
		s7.377-3.31,7.377-7.379C25.4,46.219,22.09,42.91,18.022,42.91z M18.022,54.665c-2.414,0-4.377-1.964-4.377-4.379
		c0-2.413,1.964-4.376,4.377-4.376s4.377,1.963,4.377,4.376C22.4,52.701,20.436,54.665,18.022,54.665z"/>
	<path style="fill:#231F20;" d="M18.022,69.455c-4.068,0-7.377,3.31-7.377,7.377c0,4.068,3.31,7.378,7.377,7.378
		s7.377-3.31,7.377-7.378C25.4,72.765,22.09,69.455,18.022,69.455z M18.022,81.211c-2.414,0-4.377-1.964-4.377-4.378
		s1.964-4.377,4.377-4.377s4.377,1.964,4.377,4.377C22.4,79.247,20.436,81.211,18.022,81.211z"/>
</g>
</svg>
