<?xml version="1.0" encoding="UTF-8" standalone="no"?> <svg id="Layer_1" enable-background="new 0 0 511.869 511.869" height="512" viewBox="0 0 511.869 511.869" width="512" xmlns="http://www.w3.org/2000/svg"><g><g><path d="m257 481.968c-3.994 0-7.822-1.592-10.639-4.425l-65.361-65.753-15-40.685-15 10.506s-114.82-115.516-114.997-115.714c-11.12-12.444-19.847-26.615-25.923-41.834-1.893-4.741 8.31-10.928 6.94-15.852-1.516-5.449-14.546-9.655-15.402-15.275-1.072-7.034-1.618-14.181-1.618-21.385 0-78.106 63.543-141.65 141.649-141.65 3.129 0 6.247.102 9.351.306 5.045.331 8.644 20.379 13.594 21.238 5.067.88 11.481-17.418 16.408-15.996 13.068 3.771 25.574 9.43 37.143 16.867 14.75 9.481 27.534 21.536 37.79 35.527 10.256-13.991 23.041-26.046 37.79-35.527 22.813-14.664 49.265-22.415 76.497-22.415 78.105 0 141.648 63.544 141.648 141.649 0 7.204-.546 14.351-1.618 21.385-.59 3.873-20.242 8.16-21.147 11.956-1.501 6.297 15.471 12.027 13.128 18.045-6.091 15.646-14.973 30.209-26.366 42.959-.16.18-208.175 211.592-208.175 211.592-2.811 2.856-6.646 4.469-10.654 4.479-.012.002-.025.002-.038.002z" fill="#ff5f55"/></g><path d="m370.221 29.901c-27.231 0-53.684 7.751-76.497 22.415-14.749 9.481-27.533 21.536-37.789 35.527v394.071c.354.025.708.053 1.066.053h.038c4.007-.011 7.843-1.623 10.654-4.479 0 0 208.015-211.412 208.175-211.592 11.394-12.75 20.275-27.313 26.366-42.959 2.343-6.018-14.63-11.749-13.128-18.045.905-3.796 20.557-8.083 21.147-11.956 1.072-7.034 1.618-14.181 1.618-21.385-.002-78.106-63.545-141.65-141.65-141.65z" fill="#f82f36"/><path d="m510.243 192.935h-329.243v-157.477c-9.739-2.811-19.79-4.57-30-5.239v162.715h-149.374c1.569 10.298 4.262 20.354 8.017 30h141.357v158.676l30 30.179v-188.854h321.226c3.755-9.646 6.448-19.703 8.017-30z" fill="#006613"/><path d="m216.606 236.328-39.5-39.5c-3.058-3.059-7.108-4.505-11.114-4.37-4.002-.131-8.045 1.315-11.099 4.37l-39.5 39.5c-5.858 5.857-5.858 15.355 0 21.213 2.929 2.929 6.768 4.394 10.606 4.394s7.678-1.465 10.606-4.394l29.395-29.394 29.394 29.394c2.929 2.93 6.767 4.394 10.606 4.394 3.838 0 7.678-1.465 10.606-4.394 5.858-5.857 5.858-15.355 0-21.213z" fill="#006613"/><path d="m235.57 141.115c-.001 0-.001 0 0 0-17.545-17.544-46.094-17.546-63.641 0-2.126 2.126-4.101 4.761-5.93 7.862-1.829-3.101-3.804-5.736-5.93-7.862-17.544-17.544-46.094-17.546-63.639 0-8.5 8.499-13.18 19.8-13.18 31.819 0 12.021 4.681 23.321 13.18 31.819 7.351 7.352 20.583 12.948 39.328 16.637 6.493 1.277 13.078 2.166 18.542 2.502 1.554.096 16.328.169 18.721.169 1.557 0 3.125-.073 4.678-.169 5.464-.336 12.049-1.225 18.542-2.502 18.745-3.688 31.977-9.285 39.328-16.637 8.499-8.499 13.18-19.799 13.18-31.819.001-12.019-4.68-23.32-13.179-31.819zm-117.927 42.425c-2.833-2.832-4.393-6.599-4.393-10.605s1.561-7.773 4.394-10.606c2.925-2.925 6.765-4.387 10.607-4.387 3.84 0 7.682 1.463 10.606 4.387 3.973 3.973 7.893 19.375 9.622 30.834-11.46-1.729-26.864-5.65-30.836-9.623zm96.713.001c-3.973 3.973-19.375 7.893-30.835 9.621 1.729-11.459 5.649-26.861 9.621-30.834 2.924-2.924 6.766-4.387 10.607-4.387s7.683 1.463 10.606 4.387c2.833 2.833 4.394 6.6 4.394 10.606s-1.56 7.774-4.393 10.607z" fill="#006613"/><path d="m255.935 192.935v30h246.291c3.755-9.646 6.448-19.702 8.017-30z" fill="#006613"/></g></svg>